<svg width="56" height="56" viewBox="0 0 56 56" fill="none" xmlns="http://www.w3.org/2000/svg">
<rect width="56" height="56" fill="#434244"/>
<path d="M38.6667 12H17.3334V14.6667H38.6667V12ZM17.3334 44H38.6667V41.3333H17.3334V44ZM41.3334 17.3333H14.6667V38.6667H41.3334V17.3333ZM28.0001 21C29.6534 21 31.0001 22.3467 31.0001 24C31.0001 25.6533 29.6534 27 28.0001 27C26.3467 27 25.0001 25.6533 25.0001 24C25.0001 22.3467 26.3467 21 28.0001 21ZM34.6667 34.6667H21.3334V32.6667C21.3334 30.44 25.7734 29.3333 28.0001 29.3333C30.2267 29.3333 34.6667 30.44 34.6667 32.6667V34.6667Z" fill="white"/>
</svg>
