<svg width="16" height="16" viewBox="0 0 16 16" fill="none" xmlns="http://www.w3.org/2000/svg">
<path d="M10.3333 9.33333H9.80667L9.62 9.15333C10.2733 8.39333 10.6667 7.40667 10.6667 6.33333C10.6667 3.94 8.72667 2 6.33333 2C3.94 2 2 3.94 2 6.33333C2 8.72667 3.94 10.6667 6.33333 10.6667C7.40667 10.6667 8.39333 10.2733 9.15333 9.62L9.33333 9.80667V10.3333L12.6667 13.66L13.66 12.6667L10.3333 9.33333ZM6.33333 9.33333C4.67333 9.33333 3.33333 7.99333 3.33333 6.33333C3.33333 4.67333 4.67333 3.33333 6.33333 3.33333C7.99333 3.33333 9.33333 4.67333 9.33333 6.33333C9.33333 7.99333 7.99333 9.33333 6.33333 9.33333Z" fill="#434244" fill-opacity="0.5"/>
<path d="M0 0V-1H-1V0H0ZM16 0H17V-1H16V0ZM16 16V17H17V16H16ZM0 16H-1V17H0V16ZM0 1H16V-1H0V1ZM15 0V16H17V0H15ZM16 15H0V17H16V15ZM1 16V0H-1V16H1Z" fill="black"/>
<path d="M0 0V-1H-1V0H0ZM16 0H17V-1H16V0ZM16 16V17H17V16H16ZM0 16H-1V17H0V16ZM0 1H16V-1H0V1ZM15 0V16H17V0H15ZM16 15H0V17H16V15ZM1 16V0H-1V16H1Z" fill="black" fill-opacity="0.2"/>
<path d="M0 0V-1H-1V0H0ZM16 0H17V-1H16V0ZM16 16V17H17V16H16ZM0 16H-1V17H0V16ZM0 1H16V-1H0V1ZM15 0V16H17V0H15ZM16 15H0V17H16V15ZM1 16V0H-1V16H1Z" fill="black" fill-opacity="0.2"/>
</svg>
